<svg width="333" height="333" viewBox="0 0 333 333" fill="none" xmlns="http://www.w3.org/2000/svg">
<circle cx="166.5" cy="166.5" r="166.5" fill="white"/>
<path d="M46 136H98.5C100.433 136 102 137.567 102 139.5V139.5C102 141.433 100.433 143 98.5 143H46V136Z" fill="#0ADF39"/>
<path d="M46 159H87.5C89.433 159 91 160.567 91 162.5V162.5C91 164.433 89.433 166 87.5 166H46V159Z" fill="#0ADF39"/>
<path d="M46 182H98.5C100.433 182 102 183.567 102 185.5V185.5C102 187.433 100.433 189 98.5 189H46V182Z" fill="#0ADF39"/>
<path d="M114.238 188V144.743H119.476V166.203H119.983L139.415 144.743H146.258L128.094 164.259L146.258 188H139.922L124.883 167.892L119.476 173.975V188H114.238Z" fill="black"/>
<path d="M164.012 188H158.521L174.404 144.743H179.811L195.695 188H190.203L177.277 151.586H176.939L164.012 188ZM166.04 171.103H188.175V175.75H166.04V171.103Z" fill="black"/>
<path d="M215.238 186V142.743H229.854C233.234 142.743 236.008 143.32 238.176 144.475C240.345 145.616 241.95 147.186 242.992 149.185C244.034 151.185 244.555 153.459 244.555 156.007C244.555 158.556 244.034 160.816 242.992 162.787C241.95 164.759 240.352 166.308 238.197 167.434C236.043 168.547 233.29 169.103 229.939 169.103H218.111V164.372H229.77C232.079 164.372 233.938 164.034 235.346 163.358C236.768 162.682 237.796 161.724 238.43 160.485C239.077 159.232 239.401 157.739 239.401 156.007C239.401 154.275 239.077 152.762 238.43 151.466C237.782 150.171 236.747 149.171 235.325 148.467C233.903 147.749 232.023 147.39 229.685 147.39H220.476V186H215.238ZM235.599 166.568L246.245 186H240.162L229.685 166.568H235.599Z" fill="black"/>
<path d="M260.873 147.39V142.743H293.315V147.39H279.713V186H274.475V147.39H260.873Z" fill="black"/>
</svg>
